<?xml version="1.0" standalone="no"?>
<!DOCTYPE svg PUBLIC "-//W3C//DTD SVG 20010904//EN"
 "http://www.w3.org/TR/2001/REC-SVG-20010904/DTD/svg10.dtd">
<svg version="1.0" xmlns="http://www.w3.org/2000/svg"
 width="97.000000pt" height="96.000000pt" viewBox="0 0 97.000000 96.000000"
 preserveAspectRatio="xMidYMid meet">

<g transform="translate(0.000000,96.000000) scale(0.100000,-0.100000)"
fill="#000000" stroke="none">
<path d="M0 480 l0 -480 485 0 485 0 0 480 0 480 -485 0 -485 0 0 -480z m537
135 c35 -15 35 -16 19 -34 -13 -15 -26 -18 -52 -14 -44 7 -60 -22 -25 -46 13
-9 34 -26 47 -38 59 -54 4 -151 -79 -140 -22 3 -47 12 -55 21 -14 14 -14 17 2
35 17 18 20 19 41 5 29 -19 55 -8 55 22 0 16 -10 28 -32 40 -42 21 -48 31 -48
75 0 35 25 69 60 82 24 9 28 8 67 -8z m-159 -22 c-3 -26 -7 -28 -50 -31 -43
-3 -48 -5 -48 -28 0 -21 4 -24 40 -24 36 0 40 -3 40 -24 0 -23 -5 -25 -47 -28
-44 -3 -48 -5 -51 -30 -3 -27 -2 -28 48 -28 48 0 51 -2 48 -22 -3 -21 -9 -23
-80 -26 -43 -2 -78 -1 -78 2 0 11 31 222 35 244 5 20 11 22 76 22 l70 0 -3
-27z m366 6 c36 -28 36 -80 0 -116 l-26 -26 21 -54 21 -54 -32 3 c-28 3 -33 8
-48 52 -23 68 -37 69 -45 2 -7 -53 -9 -56 -35 -56 l-27 0 18 118 c10 64 19
125 19 135 0 27 98 24 134 -4z"/>
<path d="M656 554 c-12 -31 -6 -54 13 -54 20 0 51 25 51 40 0 10 -33 30 -48
30 -6 0 -13 -7 -16 -16z"/>
</g>
</svg>
